<?xml version="1.0" standalone="no"?>
<!DOCTYPE svg PUBLIC "-//W3C//DTD SVG 20010904//EN"
 "http://www.w3.org/TR/2001/REC-SVG-20010904/DTD/svg10.dtd">
<svg version="1.0" xmlns="http://www.w3.org/2000/svg"
 width="512.000000pt" height="512.000000pt" viewBox="0 0 512.000000 512.000000"
 preserveAspectRatio="xMidYMid meet">

<g transform="translate(0.000000,512.000000) scale(0.100000,-0.100000)"
fill="#000000" stroke="none">
<path d="M854 4836 c-139 -70 -243 -193 -291 -344 -23 -74 -25 -95 -21 -195
l4 -113 -70 -33 c-94 -45 -185 -136 -229 -228 -29 -62 -32 -76 -32 -168 0 -68
6 -122 19 -168 l19 -68 -24 -16 c-47 -31 -135 -129 -166 -184 -107 -186 -76
-364 95 -550 l63 -68 -36 -47 c-60 -78 -97 -167 -110 -265 -8 -56 14 -152 52
-220 34 -63 134 -159 201 -193 101 -51 147 -56 562 -63 355 -5 565 1 781 24
l61 6 -31 -62 c-39 -76 -84 -210 -107 -316 -21 -100 -24 -348 -5 -455 42 -240
337 -715 499 -803 96 -52 241 -70 379 -46 78 14 120 41 153 99 23 41 25 58 28
180 4 144 -14 303 -62 564 l-24 130 40 80 c145 290 340 647 441 806 94 149
146 210 195 231 76 33 72 41 72 -169 l0 -188 31 -30 30 -29 677 -3 c720 -3
798 1 880 42 59 30 136 111 165 174 l22 47 0 1205 0 1205 -27 57 c-34 73 -103
142 -176 176 l-57 27 -739 3 c-665 2 -741 1 -763 -13 -30 -20 -53 -72 -53
-120 0 -19 -2 -35 -4 -35 -2 0 -36 19 -76 41 -39 23 -120 61 -178 85 l-107 44
-1006 0 -1006 0 -69 -34z m2144 -210 c56 -24 147 -74 202 -111 l100 -66 0
-927 0 -927 -102 -40 c-82 -32 -111 -50 -152 -90 -114 -113 -305 -432 -582
-974 -118 -232 -116 -211 -60 -526 27 -151 39 -251 43 -357 l6 -146 -57 -7
c-73 -9 -150 1 -204 27 -105 50 -364 463 -404 643 -8 37 -12 118 -12 210 1
126 6 165 27 247 35 134 85 244 164 361 79 118 85 153 34 199 -34 31 -54 33
-146 18 -122 -19 -386 -41 -585 -49 -265 -10 -736 4 -806 24 -64 18 -144 87
-174 151 -42 85 -5 187 115 322 91 102 88 129 -21 220 -116 96 -184 198 -184
276 0 89 69 184 195 269 33 22 66 48 73 56 19 24 9 97 -23 171 -16 37 -30 91
-33 127 -11 140 94 250 261 273 105 15 138 74 95 171 -19 45 -23 71 -23 154 0
87 3 107 27 157 30 64 97 136 154 167 38 20 53 20 1004 20 l965 1 103 -44z
m1848 18 c15 -11 37 -33 48 -48 21 -27 21 -34 24 -1183 l2 -1156 -25 -42 c-45
-78 -11 -75 -744 -75 l-651 0 0 1265 0 1265 659 -2 c648 -3 660 -3 687 -24z"/>
<path d="M4297 2875 c-85 -32 -162 -111 -192 -195 -20 -55 -19 -154 1 -213 20
-61 93 -141 158 -175 44 -23 63 -27 141 -27 75 0 97 4 135 24 61 32 116 86
148 146 23 43 27 62 27 140 0 75 -4 97 -24 135 -32 62 -86 117 -146 148 -62
32 -187 40 -248 17z m183 -212 c60 -53 48 -153 -22 -189 -78 -40 -168 14 -168
102 0 39 5 51 34 80 29 29 41 34 80 34 36 0 52 -6 76 -27z"/>
</g>
</svg>
