<?xml version="1.0" standalone="no"?>
<!DOCTYPE svg PUBLIC "-//W3C//DTD SVG 20010904//EN"
 "http://www.w3.org/TR/2001/REC-SVG-20010904/DTD/svg10.dtd">
<svg version="1.0" xmlns="http://www.w3.org/2000/svg"
 width="512.000000pt" height="512.000000pt" viewBox="0 0 512.000000 512.000000"
 preserveAspectRatio="xMidYMid meet">

<g transform="translate(0.000000,512.000000) scale(0.100000,-0.100000)"
fill="#000000" stroke="none">
<path d="M2421 4900 c-72 -15 -137 -66 -174 -135 -21 -38 -22 -56 -28 -405 -6
-312 -9 -378 -27 -455 -58 -266 -210 -497 -435 -663 -135 -100 -347 -184 -498
-198 l-69 -7 0 185 0 185 -26 24 -26 24 -511 3 c-282 2 -527 0 -546 -3 -18 -4
-44 -17 -57 -30 l-24 -24 0 -1566 0 -1566 24 -24 c13 -13 39 -26 57 -30 19 -3
264 -5 546 -3 l511 3 26 24 c26 24 26 26 26 183 0 101 4 158 10 158 6 0 52
-21 102 -46 192 -96 388 -162 618 -206 113 -21 132 -22 1204 -25 743 -3 1105
0 1140 7 114 23 213 92 276 189 86 135 84 330 -5 460 l-35 51 52 26 c68 34
148 116 182 185 58 121 57 251 -4 375 -16 34 -30 64 -30 66 0 3 24 8 53 10 76
6 177 57 240 120 126 126 161 320 87 474 -32 65 -119 155 -184 190 l-55 29 33
50 c62 92 88 216 67 313 -35 166 -178 305 -349 341 -36 7 -286 11 -767 11
-393 0 -715 3 -715 8 0 4 13 54 30 110 74 260 100 474 100 817 0 185 -4 266
-15 313 -46 196 -205 366 -398 428 -68 21 -106 26 -222 29 -77 3 -160 0 -184
-5z m362 -190 c118 -44 214 -136 258 -247 22 -54 24 -74 27 -301 5 -388 -34
-646 -148 -976 -26 -78 -25 -92 9 -127 l29 -29 790 0 c886 0 852 3 938 -73 64
-57 88 -107 88 -187 0 -75 -23 -128 -80 -184 -61 -60 -97 -66 -368 -66 -261 0
-281 -4 -304 -54 -17 -33 -9 -68 19 -95 20 -19 39 -20 358 -23 317 -3 339 -4
382 -24 131 -61 192 -180 155 -305 -20 -71 -64 -121 -134 -156 l-57 -28 -385
-3 c-376 -3 -386 -4 -407 -24 -33 -31 -31 -87 3 -119 25 -24 29 -24 252 -29
249 -5 258 -7 323 -72 97 -97 98 -258 3 -359 -14 -14 -46 -37 -72 -50 -46 -23
-54 -24 -353 -29 -281 -5 -309 -7 -327 -24 -25 -22 -31 -51 -19 -89 17 -51 46
-57 269 -57 192 0 206 -2 253 -24 59 -27 117 -88 136 -142 17 -51 16 -140 -3
-185 -21 -49 -74 -106 -122 -132 l-41 -22 -1095 0 -1095 0 -120 23 c-232 45
-394 101 -634 221 l-121 61 0 1040 0 1039 32 5 c144 21 196 32 285 61 359 119
647 388 788 738 78 193 95 321 95 715 0 191 4 300 11 313 21 41 64 50 200 45
94 -4 140 -11 182 -26z m-1763 -2875 l0 -1455 -425 0 -425 0 0 1448 c0 797 3
1452 7 1455 3 4 195 7 425 7 l418 0 0 -1455z"/>
<path d="M495 956 c-27 -12 -67 -41 -87 -64 -35 -39 -68 -119 -68 -167 0 -47
33 -128 67 -166 158 -175 443 -68 443 166 0 185 -190 309 -355 231z m159 -172
c42 -43 33 -104 -21 -132 -33 -18 -59 -14 -89 12 -57 48 -20 146 55 146 17 0
39 -10 55 -26z"/>
</g>
</svg>
